<svg data-v-423bf9ae="" xmlns="http://www.w3.org/2000/svg" viewBox="0 0 255 90" class="iconLeftSlogan"><!----><!----><!----><g data-v-423bf9ae="" id="4a07a888-76fb-494d-87c7-548feb81bc3a" fill="#2F1911" transform="matrix(4.743083146983607,0,0,4.743083146983607,104.7345358645807,-9.77075148822199)"><path d="M5.04 12.46L5.04 12.46Q3.15 12.46 2.13 11.55L2.13 11.55L2.13 11.55Q1.11 10.64 1.11 8.75L1.11 8.75L1.11 2.69L2.44 2.69L2.44 8.82L2.44 8.82Q2.44 10.05 3.12 10.69L3.12 10.69L3.12 10.69Q3.79 11.33 5.04 11.33L5.04 11.33L5.04 11.33Q6.30 11.33 6.99 10.68L6.99 10.68L6.99 10.68Q7.67 10.04 7.67 8.82L7.67 8.82L7.67 2.69L9.00 2.69L9.00 8.75L9.00 8.75Q9.00 10.64 7.98 11.55L7.98 11.55L7.98 11.55Q6.96 12.46 5.04 12.46L5.04 12.46ZM11.05 14.71L11.05 4.93L11.97 4.93L12.12 5.92L12.21 5.92L12.21 5.92Q12.57 5.35 13.17 5.05L13.17 5.05L13.17 5.05Q13.76 4.76 14.49 4.76L14.49 4.76L14.49 4.76Q15.89 4.76 16.65 5.70L16.65 5.70L16.65 5.70Q17.40 6.64 17.40 8.61L17.40 8.61L17.40 8.61Q17.40 10.54 16.65 11.50L16.65 11.50L16.65 11.50Q15.90 12.46 14.60 12.46L14.60 12.46L14.60 12.46Q13.82 12.46 13.27 12.22L13.27 12.22L13.27 12.22Q12.73 11.98 12.36 11.45L12.36 11.45L12.28 11.45L12.28 14.71L11.05 14.71ZM14.18 11.44L14.18 11.44Q14.90 11.44 15.32 11.17L15.32 11.17L15.32 11.17Q15.74 10.91 15.93 10.30L15.93 10.30L15.93 10.30Q16.13 9.70 16.13 8.67L16.13 8.67L16.13 8.61L16.13 8.61Q16.13 7.56 15.93 6.94L15.93 6.94L15.93 6.94Q15.74 6.33 15.31 6.05L15.31 6.05L15.31 6.05Q14.88 5.78 14.18 5.78L14.18 5.78L14.18 5.78Q13.20 5.78 12.74 6.50L12.74 6.50L12.74 6.50Q12.28 7.21 12.28 8.61L12.28 8.61L12.28 8.67L12.28 8.67Q12.28 10.04 12.73 10.74L12.73 10.74L12.73 10.74Q13.19 11.44 14.18 11.44L14.18 11.44ZM18.83 12.29L18.83 2.17L20.06 2.17L20.06 12.29L18.83 12.29ZM21.94 3.54L21.94 2.17L23.17 2.17L23.17 3.54L21.94 3.54ZM21.94 12.29L21.94 4.93L23.17 4.93L23.17 12.29L21.94 12.29ZM25.31 12.29L25.31 5.95L24.23 5.95L24.23 4.93L25.31 4.93L25.31 3.75L25.31 3.75Q25.31 3.02 25.68 2.54L25.68 2.54L25.68 2.54Q26.04 2.06 26.91 2.06L26.91 2.06L26.91 2.06Q27.19 2.06 27.48 2.11L27.48 2.11L27.48 2.11Q27.76 2.16 27.96 2.23L27.96 2.23L27.96 3.08L27.23 3.08L27.23 3.08Q26.54 3.08 26.54 3.75L26.54 3.75L26.54 4.93L27.96 4.93L27.96 5.95L26.54 5.95L26.54 12.29L25.31 12.29ZM30.60 12.45L30.60 12.45Q29.85 12.45 29.50 12.00L29.50 12.00L29.50 12.00Q29.15 11.55 29.15 10.89L29.15 10.89L29.15 5.95L28.25 5.95L28.25 4.93L29.16 4.93L29.43 2.88L30.38 2.88L30.38 4.93L31.63 4.93L31.63 5.95L30.38 5.95L30.38 10.78L30.38 10.78Q30.38 11.44 31.00 11.44L31.00 11.44L31.63 11.44L31.63 12.25L31.63 12.25Q31.44 12.33 31.15 12.39L31.15 12.39L31.15 12.39Q30.86 12.45 30.60 12.45L30.60 12.45Z"></path></g><defs data-v-423bf9ae=""><linearGradient data-v-423bf9ae="" gradientTransform="rotate(25)" id="016a91b1-19f5-4198-ac39-bf93782dd2c2" x1="0%" y1="0%" x2="100%" y2="0%"><stop data-v-423bf9ae="" offset="0%" style="stop-color: rgb(184, 41, 73); stop-opacity: 1;"></stop><stop data-v-423bf9ae="" offset="100%" style="stop-color: rgb(233, 184, 76); stop-opacity: 1;"></stop></linearGradient></defs><g data-v-423bf9ae="" id="1d73816c-01e6-4a9f-8415-5ac6731b8b14" transform="matrix(1.8749964237281347,0,0,1.8749964237281347,0.00040779081506059356,1.0005374516992944)" stroke="none" fill="url(#016a91b1-19f5-4198-ac39-bf93782dd2c2)"><path d="M47.977 10.412l-1.643-9.213a1.454 1.454 0 0 0-2.222-.966l-7.963 5.148a1.454 1.454 0 1 0 1.579 2.444l3.735-2.415-10.616 24.509-16.309-14.642a1.456 1.456 0 0 0-2.323.541L.104 46.004a1.455 1.455 0 0 0 2.701 1.083l11.338-28.256 16.264 14.602a1.452 1.452 0 0 0 2.305-.504L44.277 6.234l.836 4.688a1.454 1.454 0 1 0 2.864-.51z"></path></g><!----><g data-v-423bf9ae="" id="8faf4ff1-d909-4ea5-afbd-802433275620" fill="#2F1911" transform="matrix(0.7090376006738721,0,0,0.7090376006738721,109.87173257519882,57.419101660324394)"><path d="M7.43 3.78L4.16 9.42L4.16 13.02L3.46 13.02L3.46 9.42L0.18 3.78L1.01 3.78L3.81 8.69L6.61 3.78L7.43 3.78ZM19.40 3.64L19.40 3.64Q20.71 3.64 21.66 4.22L21.66 4.22L21.66 4.22Q22.62 4.80 23.14 5.87L23.14 5.87L23.14 5.87Q23.66 6.94 23.66 8.40L23.66 8.40L23.66 8.40Q23.66 9.86 23.14 10.93L23.14 10.93L23.14 10.93Q22.62 12.00 21.66 12.58L21.66 12.58L21.66 12.58Q20.71 13.16 19.40 13.16L19.40 13.16L19.40 13.16Q18.10 13.16 17.14 12.58L17.14 12.58L17.14 12.58Q16.18 12.00 15.67 10.93L15.67 10.93L15.67 10.93Q15.15 9.86 15.15 8.40L15.15 8.40L15.15 8.40Q15.15 6.94 15.67 5.87L15.67 5.87L15.67 5.87Q16.18 4.80 17.14 4.22L17.14 4.22L17.14 4.22Q18.10 3.64 19.40 3.64L19.40 3.64ZM19.40 4.28L19.40 4.28Q18.33 4.28 17.54 4.78L17.54 4.78L17.54 4.78Q16.74 5.28 16.32 6.21L16.32 6.21L16.32 6.21Q15.89 7.14 15.89 8.40L15.89 8.40L15.89 8.40Q15.89 9.66 16.32 10.59L16.32 10.59L16.32 10.59Q16.74 11.52 17.54 12.02L17.54 12.02L17.54 12.02Q18.33 12.52 19.40 12.52L19.40 12.52L19.40 12.52Q20.48 12.52 21.28 12.02L21.28 12.02L21.28 12.02Q22.08 11.52 22.51 10.59L22.51 10.59L22.51 10.59Q22.93 9.66 22.93 8.40L22.93 8.40L22.93 8.40Q22.93 7.14 22.51 6.21L22.51 6.21L22.51 6.21Q22.08 5.28 21.28 4.78L21.28 4.78L21.28 4.78Q20.48 4.28 19.40 4.28L19.40 4.28ZM40.00 3.78L40.00 9.65L40.00 9.65Q40.00 11.35 39.07 12.26L39.07 12.26L39.07 12.26Q38.15 13.16 36.44 13.16L36.44 13.16L36.44 13.16Q34.73 13.16 33.80 12.26L33.80 12.26L33.80 12.26Q32.87 11.35 32.87 9.65L32.87 9.65L32.87 3.78L33.57 3.78L33.57 9.51L33.57 9.51Q33.57 10.99 34.30 11.75L34.30 11.75L34.30 11.75Q35.03 12.52 36.44 12.52L36.44 12.52L36.44 12.52Q37.84 12.52 38.57 11.75L38.57 11.75L38.57 11.75Q39.30 10.99 39.30 9.51L39.30 9.51L39.30 3.78L40.00 3.78ZM56.74 13.02L55.92 13.02L53.27 9.02L53.23 9.02L50.50 9.02L50.50 13.02L49.80 13.02L49.80 3.78L53.23 3.78L53.23 3.78Q54.61 3.78 55.43 4.48L55.43 4.48L55.43 4.48Q56.25 5.18 56.25 6.40L56.25 6.40L56.25 6.40Q56.25 7.41 55.66 8.07L55.66 8.07L55.66 8.07Q55.08 8.74 54.05 8.93L54.05 8.93L56.74 13.02ZM50.50 4.42L50.50 8.36L53.21 8.36L53.21 8.36Q54.33 8.36 54.93 7.85L54.93 7.85L54.93 7.85Q55.52 7.35 55.52 6.40L55.52 6.40L55.52 6.40Q55.52 5.45 54.93 4.93L54.93 4.93L54.93 4.93Q54.33 4.42 53.21 4.42L53.21 4.42L50.50 4.42ZM83.44 4.42L77.84 4.42L77.84 7.99L82.28 7.99L82.28 8.65L77.84 8.65L77.84 13.02L77.14 13.02L77.14 3.78L83.44 3.78L83.44 4.42ZM99.33 3.78L99.33 9.65L99.33 9.65Q99.33 11.35 98.41 12.26L98.41 12.26L98.41 12.26Q97.48 13.16 95.77 13.16L95.77 13.16L95.77 13.16Q94.07 13.16 93.14 12.26L93.14 12.26L93.14 12.26Q92.20 11.35 92.20 9.65L92.20 9.65L92.20 3.78L92.90 3.78L92.90 9.51L92.90 9.51Q92.90 10.99 93.63 11.75L93.63 11.75L93.63 11.75Q94.36 12.52 95.77 12.52L95.77 12.52L95.77 12.52Q97.17 12.52 97.90 11.75L97.90 11.75L97.90 11.75Q98.63 10.99 98.63 9.51L98.63 9.51L98.63 3.78L99.33 3.78ZM115.43 3.78L115.43 4.42L112.06 4.42L112.06 13.02L111.36 13.02L111.36 4.42L107.98 4.42L107.98 3.78L115.43 3.78ZM131.21 3.78L131.21 9.65L131.21 9.65Q131.21 11.35 130.28 12.26L130.28 12.26L130.28 12.26Q129.36 13.16 127.65 13.16L127.65 13.16L127.65 13.16Q125.94 13.16 125.01 12.26L125.01 12.26L125.01 12.26Q124.08 11.35 124.08 9.65L124.08 9.65L124.08 3.78L124.78 3.78L124.78 9.51L124.78 9.51Q124.78 10.99 125.51 11.75L125.51 11.75L125.51 11.75Q126.24 12.52 127.65 12.52L127.65 12.52L127.65 12.52Q129.05 12.52 129.78 11.75L129.78 11.75L129.78 11.75Q130.51 10.99 130.51 9.51L130.51 9.51L130.51 3.78L131.21 3.78ZM147.95 13.02L147.13 13.02L144.48 9.02L144.44 9.02L141.71 9.02L141.71 13.02L141.01 13.02L141.01 3.78L144.44 3.78L144.44 3.78Q145.82 3.78 146.64 4.48L146.64 4.48L146.64 4.48Q147.46 5.18 147.46 6.40L147.46 6.40L147.46 6.40Q147.46 7.41 146.87 8.07L146.87 8.07L146.87 8.07Q146.29 8.74 145.26 8.93L145.26 8.93L147.95 13.02ZM141.71 4.42L141.71 8.36L144.42 8.36L144.42 8.36Q145.54 8.36 146.14 7.85L146.14 7.85L146.14 7.85Q146.73 7.35 146.73 6.40L146.73 6.40L146.73 6.40Q146.73 5.45 146.14 4.93L146.14 4.93L146.14 4.93Q145.54 4.42 144.42 4.42L144.42 4.42L141.71 4.42ZM157.67 12.38L163.51 12.38L163.51 13.02L156.97 13.02L156.97 3.78L163.28 3.78L163.28 4.42L157.67 4.42L157.67 7.99L162.11 7.99L162.11 8.65L157.67 8.65L157.67 12.38Z"></path></g></svg>